<svg version="1.1" id="Layer_1" xmlns="http://www.w3.org/2000/svg" xmlns:xlink="http://www.w3.org/1999/xlink" x="0px" y="0px"
	 width="100%" viewBox="0 0 2000 1500" enable-background="new 0 0 2000 1500" xml:space="preserve">
<path fill="#CB0003" opacity="1.000000" stroke="none" 
	d="
M1362.000000,1501.000000 
	C908.000122,1501.000000 454.500275,1501.000000 1.000304,1501.000000 
	C1.000203,1001.000305 1.000203,501.000580 1.000101,1.000640 
	C667.666199,1.000426 1334.332397,1.000426 2000.998901,1.000213 
	C2000.999268,500.999359 2000.999268,1000.998718 2000.999634,1500.999023 
	C1788.166626,1501.000000 1575.333374,1501.000000 1362.000000,1501.000000 
M1085.500000,1251.000244 
	C1186.917236,1251.000244 1288.334595,1251.000244 1389.692993,1251.000244 
	C1389.692993,917.337524 1389.692993,584.297119 1389.692993,251.310730 
	C1130.340088,251.310730 871.294495,251.310730 612.307007,251.310730 
	C612.307007,584.662354 612.307007,917.702820 612.307007,1251.000244 
	C769.909424,1251.000244 927.204712,1251.000244 1085.500000,1251.000244 
z"/>
<path fill="#D4DCF7" opacity="1.000000" stroke="none" 
	d="
M1085.000000,1251.000244 
	C927.204712,1251.000244 769.909424,1251.000244 612.307007,1251.000244 
	C612.307007,917.702820 612.307007,584.662354 612.307007,251.310730 
	C871.294495,251.310730 1130.340088,251.310730 1389.692993,251.310730 
	C1389.692993,584.297119 1389.692993,917.337524 1389.692993,1251.000244 
	C1288.334595,1251.000244 1186.917236,1251.000244 1085.000000,1251.000244 
M904.500061,346.122772 
	C838.756714,346.122772 773.013428,346.122772 707.412476,346.122772 
	C707.412476,616.455078 707.412476,886.013550 707.412476,1155.541748 
	C743.174622,1155.541748 778.584167,1155.541748 814.562073,1155.541748 
	C814.562073,1046.312256 814.562073,937.417175 814.562073,828.249084 
	C816.952209,828.249084 818.772705,828.249023 820.593201,828.249023 
	C879.921814,828.249023 939.250610,828.305603 998.578735,828.134888 
	C1003.030151,828.122070 1005.252441,829.461975 1007.349121,833.377319 
	C1064.117188,939.387451 1121.043945,1045.312500 1177.850830,1151.302002 
	C1179.612183,1154.588379 1181.383057,1156.020142 1185.381958,1155.996338 
	C1220.044678,1155.790161 1254.708984,1155.877441 1289.372925,1155.877441 
	C1291.150269,1155.877441 1292.927612,1155.877441 1296.088623,1155.877441 
	C1294.678711,1151.541748 1294.099609,1147.916382 1292.430176,1144.893311 
	C1230.910034,1033.497803 1169.288940,922.158081 1107.682007,810.810547 
	C1106.750488,809.127014 1105.823364,807.441040 1105.070679,806.076172 
	C1116.649292,800.569031 1128.018188,795.790894 1138.797729,789.929199 
	C1195.245972,759.233643 1234.567627,714.281250 1251.402710,651.489685 
	C1262.576294,609.814636 1261.348022,567.635071 1252.866089,525.696533 
	C1239.958130,461.873840 1205.070679,413.880249 1147.546143,382.812744 
	C1103.233032,358.880402 1055.114258,349.378265 1005.461792,347.242767 
	C972.186707,345.811676 938.823730,346.424500 904.500061,346.122772 
z"/>
<path fill="#CB0003" opacity="1.000000" stroke="none" 
	d="
M905.000122,346.122772 
	C938.823730,346.424500 972.186707,345.811676 1005.461792,347.242767 
	C1055.114258,349.378265 1103.233032,358.880402 1147.546143,382.812744 
	C1205.070679,413.880249 1239.958130,461.873840 1252.866089,525.696533 
	C1261.348022,567.635071 1262.576294,609.814636 1251.402710,651.489685 
	C1234.567627,714.281250 1195.245972,759.233643 1138.797729,789.929199 
	C1128.018188,795.790894 1116.649292,800.569031 1105.070679,806.076172 
	C1105.823364,807.441040 1106.750488,809.127014 1107.682007,810.810547 
	C1169.288940,922.158081 1230.910034,1033.497803 1292.430176,1144.893311 
	C1294.099609,1147.916382 1294.678711,1151.541748 1296.088623,1155.877441 
	C1292.927612,1155.877441 1291.150269,1155.877441 1289.372925,1155.877441 
	C1254.708984,1155.877441 1220.044678,1155.790161 1185.381958,1155.996338 
	C1181.383057,1156.020142 1179.612183,1154.588379 1177.850830,1151.302002 
	C1121.043945,1045.312500 1064.117188,939.387451 1007.349121,833.377319 
	C1005.252441,829.461975 1003.030151,828.122070 998.578735,828.134888 
	C939.250610,828.305603 879.921814,828.249023 820.593201,828.249023 
	C818.772705,828.249023 816.952209,828.249084 814.562073,828.249084 
	C814.562073,937.417175 814.562073,1046.312256 814.562073,1155.541748 
	C778.584167,1155.541748 743.174622,1155.541748 707.412476,1155.541748 
	C707.412476,886.013550 707.412476,616.455078 707.412476,346.122772 
	C773.013428,346.122772 838.756714,346.122772 905.000122,346.122772 
M879.500000,741.035767 
	C914.652344,741.023315 949.806335,741.211121 984.956543,740.930664 
	C1009.918579,740.731506 1034.431396,737.091248 1057.781860,727.928345 
	C1099.249023,711.656433 1129.608032,684.014893 1144.038208,640.967041 
	C1154.251465,610.498779 1154.035645,579.322815 1147.810425,548.200378 
	C1139.450439,506.404999 1116.808350,474.822510 1078.563965,455.131989 
	C1049.345581,440.088562 1017.755798,434.668945 985.379639,434.331635 
	C929.408081,433.748413 873.426575,434.110657 817.449280,434.092560 
	C816.513672,434.092255 815.578003,434.297455 814.673706,434.403107 
	C814.673706,536.774170 814.673706,638.786499 814.673706,741.035767 
	C836.199890,741.035767 857.349976,741.035767 879.500000,741.035767 
z"/>
<path fill="#D4DCF6" opacity="1.000000" stroke="none" 
	d="
M879.000000,741.035767 
	C857.349976,741.035767 836.199890,741.035767 814.673706,741.035767 
	C814.673706,638.786499 814.673706,536.774170 814.673706,434.403107 
	C815.578003,434.297455 816.513672,434.092255 817.449280,434.092560 
	C873.426575,434.110657 929.408081,433.748413 985.379639,434.331635 
	C1017.755798,434.668945 1049.345581,440.088562 1078.563965,455.131989 
	C1116.808350,474.822510 1139.450439,506.404999 1147.810425,548.200378 
	C1154.035645,579.322815 1154.251465,610.498779 1144.038208,640.967041 
	C1129.608032,684.014893 1099.249023,711.656433 1057.781860,727.928345 
	C1034.431396,737.091248 1009.918579,740.731506 984.956543,740.930664 
	C949.806335,741.211121 914.652344,741.023315 879.000000,741.035767 
z"/>
</svg>